<?xml version="1.0" standalone="no"?>
<!DOCTYPE svg PUBLIC "-//W3C//DTD SVG 20010904//EN"
 "http://www.w3.org/TR/2001/REC-SVG-20010904/DTD/svg10.dtd">
<svg version="1.0" xmlns="http://www.w3.org/2000/svg"
 width="1280.000000pt" height="284.000000pt" viewBox="0 0 1280.000000 284.000000"
 preserveAspectRatio="xMidYMid meet">

<g transform="translate(0.000000,284.000000) scale(0.100000,-0.100000)"
fill="#000000" stroke="none">
<path d="M0 1136 l0 -1136 6400 0 6400 0 0 850 0 850 -337 0 c-1014 0 -1611
-109 -2478 -453 -256 -101 -357 -145 -800 -350 -569 -262 -785 -351 -1060
-435 -504 -155 -945 -170 -1355 -47 -279 84 -503 210 -935 529 -104 77 -254
186 -332 242 -442 316 -726 425 -1068 410 -208 -9 -366 -41 -802 -165 -382
-108 -582 -141 -858 -141 -708 0 -1385 235 -2682 932 l-93 50 0 -1136z"/>
</g>
</svg>
